<svg width="16" height="22" viewBox="0 0 16 22" fill="none" xmlns="http://www.w3.org/2000/svg">
<path d="M4.667 7.667C3.7829 7.667 2.93501 7.31579 2.30986 6.69064C1.68471 6.06549 1.3335 5.2176 1.3335 4.3335C1.3335 3.4494 1.68471 2.60151 2.30986 1.97636C2.93501 1.35121 3.7829 1 4.667 1H8V7.667M4.667 7.667H8M4.667 7.667C3.78303 7.667 2.93527 8.01815 2.31021 8.64321C1.68515 9.26827 1.334 10.116 1.334 11C1.334 11.884 1.68515 12.7317 2.31021 13.3568C2.93527 13.9818 3.78303 14.333 4.667 14.333H8V7.667" stroke="white" stroke-width="1.5"/>
<path d="M14.667 11C14.667 11.8841 14.3158 12.732 13.6906 13.3571C13.0655 13.9823 12.2176 14.3335 11.3335 14.3335C10.4494 14.3335 9.60151 13.9823 8.97636 13.3571C8.35121 12.732 8 11.8841 8 11C8 10.1159 8.35121 9.26801 8.97636 8.64286C9.60151 8.01771 10.4494 7.6665 11.3335 7.6665C12.2176 7.6665 13.0655 8.01771 13.6906 8.64286C14.3158 9.26801 14.667 10.1159 14.667 11ZM4.667 14.334H8V17.667C7.9998 18.3262 7.80416 18.9705 7.4378 19.5184C7.07145 20.0664 6.55084 20.4935 5.94179 20.7456C5.33275 20.9977 4.66263 21.0636 4.01615 20.9348C3.36968 20.8061 2.77589 20.4886 2.30986 20.0224C1.84383 19.5563 1.52649 18.9624 1.39797 18.3159C1.26945 17.6694 1.33551 16.9993 1.58781 16.3903C1.8401 15.7813 2.2673 15.2608 2.81539 14.8946C3.36348 14.5285 4.00784 14.334 4.667 14.334Z" stroke="white" stroke-width="1.5"/>
<path d="M8 1H11.333C12.2171 1 13.065 1.35121 13.6901 1.97636C14.3153 2.60151 14.6665 3.4494 14.6665 4.3335C14.6665 5.2176 14.3153 6.06549 13.6901 6.69064C13.065 7.31579 12.2171 7.667 11.333 7.667H8V1Z" stroke="white" stroke-width="1.5"/>
</svg>
