<svg width="19" height="23" viewBox="0 0 19 23" fill="none" xmlns="http://www.w3.org/2000/svg">
<path d="M4.315 5.176C4.065 4.538 4.075 3.809 4.186 3.142C4.94996 3.37156 5.66756 3.73375 6.306 4.212C6.586 4.426 6.953 4.495 7.295 4.392C8.17244 4.12882 9.08395 3.99673 10 4C10.961 4 11.874 4.14 12.703 4.391C13.045 4.495 13.412 4.425 13.691 4.211C14.3291 3.73285 15.0464 3.37067 15.81 3.141C15.921 3.808 15.93 4.537 15.682 5.174C15.532 5.558 15.607 6 15.89 6.314C16.614 7.117 17 8.04 17 9C17 11.114 15.03 13.187 11.866 13.818C11.074 13.976 10.765 14.973 11.371 15.544C11.76 15.91 12 16.426 12 17V20C12 20.2652 12.1054 20.5196 12.2929 20.7071C12.4804 20.8946 12.7348 21 13 21C13.2652 21 13.5196 20.8946 13.7071 20.7071C13.8946 20.5196 14 20.2652 14 20V17C14 16.43 13.88 15.888 13.666 15.397C16.683 14.35 19 11.993 19 9C19 7.653 18.516 6.415 17.713 5.378C17.923 4.558 17.904 3.732 17.824 3.098C17.753 2.53 17.654 1.786 17.254 1.342C16.659 0.683 15.674 1.071 14.974 1.31C14.2227 1.56322 13.5082 1.91459 12.849 2.355C11.9181 2.11708 10.9608 1.9978 10 2C9.006 2 8.047 2.125 7.149 2.356C6.48979 1.91559 5.77527 1.56422 5.024 1.311C4.324 1.071 3.338 0.683 2.743 1.342C2.335 1.794 2.25 2.479 2.177 3.061L2.172 3.099C2.092 3.734 2.074 4.561 2.284 5.382C1.484 6.418 1 7.654 1 9C1 11.992 3.317 14.35 6.334 15.397C6.116 15.8964 6.00235 16.4351 6 16.98L5.832 17.014C5.115 17.113 4.656 17.024 4.344 16.892C3.584 16.57 3.192 15.759 2.714 15.139C2.416 14.754 1.982 14.273 1.316 14.051C1.19138 14.0095 1.0598 13.993 0.92878 14.0023C0.797761 14.0117 0.669868 14.0467 0.552402 14.1055C0.315168 14.2242 0.134809 14.4323 0.0510005 14.684C-0.0328079 14.9357 -0.0132001 15.2104 0.10551 15.4476C0.224221 15.6848 0.43231 15.8652 0.684 15.949C1.242 16.135 1.628 17.091 1.982 17.515C2.355 17.963 2.851 18.431 3.562 18.733C4.244 19.023 5.045 19.126 6 19.009V20C6 20.2652 6.10536 20.5196 6.29289 20.7071C6.48043 20.8946 6.73478 21 7 21C7.26522 21 7.51957 20.8946 7.70711 20.7071C7.89464 20.5196 8 20.2652 8 20V17C8 16.426 8.24 15.91 8.629 15.544C9.236 14.972 8.926 13.976 8.134 13.818C4.969 13.187 3 11.114 3 9C3 8.042 3.385 7.119 4.108 6.316C4.391 6.002 4.465 5.56 4.315 5.176Z" fill="white"/>
</svg>
