<svg width="132" height="132" viewBox="0 0 132 132" fill="none" xmlns="http://www.w3.org/2000/svg">
<path d="M66.2157 31.2026C66.2157 30.6504 65.768 30.2026 65.2157 30.2026H61.887C61.3347 30.2026 60.887 30.6504 60.887 31.2026V46.7062H66.2157V31.2026Z" fill="url(#paint0_linear_56_2)"/>
<path d="M72.4325 33.7416C72.4325 33.1894 71.9848 32.7416 71.4325 32.7416H68.1038C67.5515 32.7416 67.1038 33.1894 67.1038 33.7416V46.7062H72.4325V33.7416Z" fill="url(#paint1_linear_56_2)"/>
<path d="M78.6494 37.5502C78.6494 36.9979 78.2017 36.5502 77.6494 36.5502H74.3207C73.7684 36.5502 73.3207 36.9979 73.3207 37.5502V46.7062H78.6494V37.5502Z" fill="url(#paint2_linear_56_2)"/>
<path d="M84.8662 40.0892C84.8662 39.5369 84.4185 39.0892 83.8662 39.0892H80.5375C79.9852 39.0892 79.5375 39.5369 79.5375 40.0892V46.7062H84.8662V40.0892Z" fill="url(#paint3_linear_56_2)"/>
<path d="M91.0831 42.6282C91.0831 42.0759 90.6353 41.6282 90.0831 41.6282H86.7543C86.202 41.6282 85.7543 42.0759 85.7543 42.6282V46.7062H91.0831V42.6282Z" fill="url(#paint4_linear_56_2)"/>
<path d="M96.4118 45.8019C96.4118 45.2497 95.9641 44.8019 95.4118 44.8019H92.9712C92.4189 44.8019 91.9712 45.2497 91.9712 45.8019V46.7062H96.4118V45.8019Z" fill="url(#paint5_linear_56_2)"/>
<path d="M59.9989 35.0112C59.9989 34.4589 59.5511 34.0112 58.9989 34.0112H55.6701C55.1179 34.0112 54.6701 34.4589 54.6701 35.0112V46.7062H59.9989V35.0112Z" fill="url(#paint6_linear_56_2)"/>
<path d="M53.782 38.8197C53.782 38.2674 53.3343 37.8197 52.782 37.8197H49.4533C48.901 37.8197 48.4533 38.2674 48.4533 38.8197V46.7062H53.782V38.8197Z" fill="url(#paint7_linear_56_2)"/>
<path d="M47.5652 43.2629C47.5652 42.7107 47.1175 42.2629 46.5652 42.2629H43.2365C42.6842 42.2629 42.2365 42.7107 42.2365 43.2629V46.7062H47.5652V43.2629Z" fill="url(#paint8_linear_56_2)"/>
<path d="M41.3483 45.8019C41.3483 45.2497 40.9006 44.8019 40.3483 44.8019H37.0196C36.4673 44.8019 36.0196 45.2497 36.0196 45.8019V46.7062H41.3483V45.8019Z" fill="url(#paint9_linear_56_2)"/>
<path d="M59.9989 87.2092C59.9989 87.7615 59.5511 88.2092 58.9989 88.2092H55.6701C55.1179 88.2092 54.6701 87.7615 54.6701 87.2092V46.7062H59.9989V87.2092Z" fill="white"/>
<path d="M53.782 74.7584C53.782 75.3106 53.3343 75.7584 52.782 75.7584H49.4533C48.901 75.7584 48.4533 75.3106 48.4533 74.7584V46.7062H53.782V74.7584Z" fill="white"/>
<path d="M47.5652 60.2323C47.5652 60.7846 47.1175 61.2323 46.5652 61.2323H43.2365C42.6842 61.2323 42.2365 60.7846 42.2365 60.2323V46.7062H47.5652V60.2323Z" fill="white"/>
<path d="M41.3483 51.9316C41.3483 52.4839 40.9006 52.9316 40.3483 52.9316H37.0196C36.4673 52.9316 36.0196 52.4839 36.0196 51.9316V46.7062H41.3483V51.9316Z" fill="white"/>
<path d="M66.2157 99.6602C66.2157 100.212 65.768 100.66 65.2157 100.66H61.887C61.3347 100.66 60.887 100.212 60.887 99.6602V46.7062H66.2157V99.6602Z" fill="white"/>
<path d="M72.4325 91.3596C72.4325 91.9118 71.9848 92.3596 71.4325 92.3596H68.1038C67.5515 92.3596 67.1038 91.9118 67.1038 91.3596V46.7062H72.4325V91.3596Z" fill="white"/>
<path d="M78.6494 78.9086C78.6494 79.4609 78.2017 79.9086 77.6494 79.9086H74.3207C73.7684 79.9086 73.3207 79.4609 73.3207 78.9086V46.7062H78.6494V78.9086Z" fill="white"/>
<path d="M84.8662 70.608C84.8662 71.1603 84.4185 71.608 83.8662 71.608H80.5375C79.9852 71.608 79.5375 71.1603 79.5375 70.608V46.7062H84.8662V70.608Z" fill="white"/>
<path d="M91.0831 62.3074C91.0831 62.8597 90.6353 63.3074 90.0831 63.3074H86.7543C86.202 63.3074 85.7543 62.8597 85.7543 62.3074V46.7062H91.0831V62.3074Z" fill="white"/>
<path d="M96.4118 51.9316C96.4118 52.4839 95.9641 52.9316 95.4118 52.9316H92.9712C92.4189 52.9316 91.9712 52.4839 91.9712 51.9316V46.7062H96.4118V51.9316Z" fill="white"/>
<defs>
<linearGradient id="paint0_linear_56_2" x1="63.5513" y1="30.2026" x2="63.5513" y2="46.7062" gradientUnits="userSpaceOnUse">
<stop stop-color="#ECC74C"/>
<stop offset="1" stop-color="#C88443"/>
</linearGradient>
<linearGradient id="paint1_linear_56_2" x1="69.7682" y1="32.7416" x2="69.7682" y2="46.7062" gradientUnits="userSpaceOnUse">
<stop stop-color="#ECC74C"/>
<stop offset="1" stop-color="#C88443"/>
</linearGradient>
<linearGradient id="paint2_linear_56_2" x1="75.985" y1="36.5502" x2="75.985" y2="46.7062" gradientUnits="userSpaceOnUse">
<stop stop-color="#F9E481"/>
<stop offset="1" stop-color="#DF9B06"/>
</linearGradient>
<linearGradient id="paint3_linear_56_2" x1="82.2019" y1="39.0892" x2="82.2019" y2="46.7062" gradientUnits="userSpaceOnUse">
<stop stop-color="#F8DF74"/>
<stop offset="1" stop-color="#F3CE36"/>
</linearGradient>
<linearGradient id="paint4_linear_56_2" x1="88.4187" y1="41.6282" x2="88.4187" y2="46.7062" gradientUnits="userSpaceOnUse">
<stop stop-color="#F8DF74"/>
<stop offset="1" stop-color="#F3CE36"/>
</linearGradient>
<linearGradient id="paint5_linear_56_2" x1="94.1915" y1="44.8019" x2="94.1915" y2="46.7062" gradientUnits="userSpaceOnUse">
<stop stop-color="#F8DF74"/>
<stop offset="1" stop-color="#F3CE36"/>
</linearGradient>
<linearGradient id="paint6_linear_56_2" x1="57.3345" y1="34.0112" x2="57.3345" y2="46.7062" gradientUnits="userSpaceOnUse">
<stop stop-color="#F9E481"/>
<stop offset="1" stop-color="#DF9B06"/>
</linearGradient>
<linearGradient id="paint7_linear_56_2" x1="51.1177" y1="37.8197" x2="51.1177" y2="46.7062" gradientUnits="userSpaceOnUse">
<stop stop-color="#F8DF74"/>
<stop offset="1" stop-color="#F3CE36"/>
</linearGradient>
<linearGradient id="paint8_linear_56_2" x1="44.9008" y1="42.2629" x2="44.9008" y2="46.7062" gradientUnits="userSpaceOnUse">
<stop stop-color="#F8DF74"/>
<stop offset="1" stop-color="#F3CE36"/>
</linearGradient>
<linearGradient id="paint9_linear_56_2" x1="38.684" y1="44.8019" x2="38.684" y2="46.7062" gradientUnits="userSpaceOnUse">
<stop stop-color="#F8DF74"/>
<stop offset="1" stop-color="#F3CE36"/>
</linearGradient>
</defs>
</svg>
